M48
; DRILL file {KiCad 9.0.1} date 2025-11-11T21:16:48+0000
; FORMAT={-:-/ absolute / metric / decimal}
; #@! TF.CreationDate,2025-11-11T21:16:48+00:00
; #@! TF.GenerationSoftware,Kicad,Pcbnew,9.0.1
; #@! TF.FileFunction,Plated,1,2,PTH
FMAT,2
METRIC
; #@! TA.AperFunction,Plated,PTH,ViaDrill
T1C0.300
; #@! TA.AperFunction,Plated,PTH,ComponentDrill
T2C0.700
; #@! TA.AperFunction,Plated,PTH,ComponentDrill
T3C0.800
; #@! TA.AperFunction,Plated,PTH,ComponentDrill
T4C0.950
; #@! TA.AperFunction,Plated,PTH,ComponentDrill
T5C1.000
; #@! TA.AperFunction,Plated,PTH,ComponentDrill
T6C1.100
; #@! TA.AperFunction,Plated,PTH,ComponentDrill
T7C1.190
; #@! TA.AperFunction,Plated,PTH,ComponentDrill
T8C1.300
%
G90
G05
T1
X160.706Y-67.361
X164.465Y-95.25
X171.45Y-101.6
X173.39Y-67.23
X175.895Y-87.63
X185.42Y-66.04
X189.11Y-87.75
X198.12Y-66.04
X200.025Y-87.63
X210.82Y-66.04
X223.52Y-66.04
X231.12Y-97.77
X231.14Y-99.06
X236.22Y-66.04
X237.0Y-107.0
X237.0Y-114.0
X247.015Y-66.04
T2
X154.94Y-72.999
X154.94Y-76.149
X162.56Y-72.999
X162.56Y-76.149
X167.64Y-72.999
X167.64Y-76.149
X175.26Y-72.999
X175.26Y-76.149
X180.34Y-73.05
X180.34Y-76.2
X187.96Y-73.05
X187.96Y-76.2
X193.04Y-73.05
X193.04Y-76.2
X200.66Y-73.05
X200.66Y-76.2
X205.74Y-73.05
X205.74Y-76.2
X213.36Y-73.05
X213.36Y-76.2
X218.44Y-73.05
X218.44Y-76.2
X226.06Y-73.05
X226.06Y-76.2
X231.14Y-73.05
X231.14Y-76.2
X238.76Y-73.05
X238.76Y-76.2
X243.84Y-73.05
X243.84Y-76.2
X251.46Y-73.05
X251.46Y-76.2
X256.54Y-73.05
X256.54Y-76.2
X264.16Y-73.05
X264.16Y-76.2
T3
X144.78Y-74.203
X144.78Y-78.003
X163.83Y-104.26
X163.83Y-111.76
X168.275Y-93.98
X168.275Y-96.52
X168.275Y-99.06
X168.275Y-101.6
X168.275Y-104.14
X168.275Y-106.68
X168.275Y-109.22
X168.275Y-111.76
X175.895Y-93.98
X175.895Y-96.52
X175.895Y-99.06
X175.895Y-101.6
X175.895Y-104.14
X175.895Y-106.68
X175.895Y-109.22
X175.895Y-111.76
X181.61Y-93.98
X189.11Y-93.98
X192.405Y-93.98
X192.405Y-96.52
X192.405Y-99.06
X192.405Y-101.6
X192.405Y-104.14
X192.405Y-106.68
X192.405Y-109.22
X192.405Y-111.76
X200.025Y-93.98
X200.025Y-96.52
X200.025Y-99.06
X200.025Y-101.6
X200.025Y-104.14
X200.025Y-106.68
X200.025Y-109.22
X200.025Y-111.76
T4
X183.515Y-101.76
X183.515Y-104.26
X183.515Y-106.76
X183.515Y-109.26
X183.515Y-111.76
T5
X153.035Y-95.885
X153.035Y-98.425
X153.035Y-100.965
X153.035Y-103.505
X153.035Y-106.045
X153.035Y-108.585
X155.575Y-95.885
X155.575Y-98.425
X155.575Y-100.965
X155.575Y-103.505
X155.575Y-106.045
X155.575Y-108.585
X156.21Y-60.97
X156.21Y-65.97
X222.885Y-87.63
X222.885Y-102.87
X225.425Y-87.63
X225.425Y-102.87
X227.965Y-87.63
X227.965Y-102.87
X230.505Y-87.63
X230.505Y-102.87
X233.045Y-87.63
X233.045Y-102.87
X235.585Y-87.63
X235.585Y-102.87
X238.125Y-87.63
X238.125Y-102.87
X240.665Y-87.63
X240.665Y-102.87
X243.205Y-87.63
X243.205Y-102.87
X245.745Y-87.63
X245.745Y-102.87
X248.285Y-87.63
X248.285Y-102.87
X250.825Y-87.63
X250.825Y-102.87
X253.365Y-87.63
X253.365Y-102.87
X255.905Y-87.63
X255.905Y-102.87
X258.445Y-87.63
X258.445Y-102.87
T6
X154.94Y-50.8
X157.48Y-50.8
X160.02Y-50.8
X167.64Y-45.72
X167.64Y-55.88
X167.64Y-63.5
X170.18Y-63.5
X172.72Y-63.5
X180.34Y-50.8
X180.34Y-58.42
X180.34Y-68.58
X182.88Y-50.8
X185.42Y-50.8
X193.04Y-45.72
X193.04Y-55.88
X193.04Y-63.5
X195.58Y-63.5
X198.12Y-63.5
X205.74Y-50.8
X205.74Y-58.42
X205.74Y-68.58
X208.28Y-50.8
X210.82Y-50.8
X218.44Y-45.72
X218.44Y-55.88
X218.44Y-63.5
X220.98Y-63.5
X223.52Y-63.5
X231.14Y-50.8
X231.14Y-58.42
X231.14Y-68.58
X233.68Y-50.8
X236.22Y-50.8
X243.84Y-45.72
X243.84Y-55.88
X243.84Y-63.5
X246.38Y-63.5
X248.92Y-63.5
X256.54Y-50.8
X256.54Y-58.42
X256.54Y-68.58
X259.08Y-50.8
X261.62Y-50.8
X269.24Y-45.72
X269.24Y-55.88
T7
X144.78Y-83.82
X144.78Y-86.36
X220.345Y-113.665
X222.885Y-113.665
X225.425Y-113.665
X227.965Y-113.665
X240.665Y-113.665
X243.205Y-113.665
X245.745Y-113.665
X255.905Y-113.665
X258.445Y-113.665
T8
X144.78Y-62.23
X144.78Y-67.23
X155.02Y-38.1
X160.02Y-38.1
X167.72Y-38.1
X172.72Y-38.1
X180.42Y-38.1
X185.42Y-38.1
X193.12Y-38.1
X198.12Y-38.1
X205.82Y-38.1
X210.82Y-38.1
X218.52Y-38.1
X223.52Y-38.1
X231.22Y-38.1
X236.22Y-38.1
X243.92Y-38.1
X248.92Y-38.1
X256.62Y-38.1
X261.62Y-38.1
M30
