%TF.GenerationSoftware,KiCad,Pcbnew,9.0.1*%
%TF.CreationDate,2025-11-11T21:16:56+00:00*%
%TF.ProjectId,Paper Tape Punch Driver Board,50617065-7220-4546-9170-652050756e63,rev?*%
%TF.SameCoordinates,Original*%
%TF.FileFunction,Soldermask,Top*%
%TF.FilePolarity,Negative*%
%FSLAX46Y46*%
G04 Gerber Fmt 4.6, Leading zero omitted, Abs format (unit mm)*
G04 Created by KiCad (PCBNEW 9.0.1) date 2025-11-11 21:16:56*
%MOMM*%
%LPD*%
G01*
G04 APERTURE LIST*
G04 Aperture macros list*
%AMRoundRect*
0 Rectangle with rounded corners*
0 $1 Rounding radius*
0 $2 $3 $4 $5 $6 $7 $8 $9 X,Y pos of 4 corners*
0 Add a 4 corners polygon primitive as box body*
4,1,4,$2,$3,$4,$5,$6,$7,$8,$9,$2,$3,0*
0 Add four circle primitives for the rounded corners*
1,1,$1+$1,$2,$3*
1,1,$1+$1,$4,$5*
1,1,$1+$1,$6,$7*
1,1,$1+$1,$8,$9*
0 Add four rect primitives between the rounded corners*
20,1,$1+$1,$2,$3,$4,$5,0*
20,1,$1+$1,$4,$5,$6,$7,0*
20,1,$1+$1,$6,$7,$8,$9,0*
20,1,$1+$1,$8,$9,$2,$3,0*%
G04 Aperture macros list end*
%ADD10C,1.400000*%
%ADD11O,1.400000X1.400000*%
%ADD12R,1.600000X1.600000*%
%ADD13O,1.600000X1.600000*%
%ADD14R,2.200000X2.200000*%
%ADD15O,2.200000X2.200000*%
%ADD16RoundRect,0.250000X0.620000X0.845000X-0.620000X0.845000X-0.620000X-0.845000X0.620000X-0.845000X0*%
%ADD17O,1.740000X2.190000*%
%ADD18R,2.400000X1.600000*%
%ADD19O,2.400000X1.600000*%
%ADD20C,3.200000*%
%ADD21R,1.905000X2.000000*%
%ADD22O,1.905000X2.000000*%
%ADD23C,1.600000*%
%ADD24R,2.500000X2.500000*%
%ADD25C,2.500000*%
%ADD26RoundRect,0.250000X-0.600000X-0.600000X0.600000X-0.600000X0.600000X0.600000X-0.600000X0.600000X0*%
%ADD27C,1.700000*%
%ADD28R,2.000000X2.000000*%
%ADD29C,2.000000*%
%ADD30RoundRect,0.250000X0.725000X-0.600000X0.725000X0.600000X-0.725000X0.600000X-0.725000X-0.600000X0*%
%ADD31O,1.950000X1.700000*%
%ADD32RoundRect,0.250000X0.845000X-0.620000X0.845000X0.620000X-0.845000X0.620000X-0.845000X-0.620000X0*%
%ADD33O,2.190000X1.740000*%
G04 APERTURE END LIST*
D10*
%TO.C,R16*%
X243840000Y-76200000D03*
D11*
X251460000Y-76200000D03*
%TD*%
D12*
%TO.C,A1*%
X222885000Y-102870000D03*
D13*
X225425000Y-102870000D03*
X227965000Y-102870000D03*
X230505000Y-102870000D03*
X233045000Y-102870000D03*
X235585000Y-102870000D03*
X238125000Y-102870000D03*
X240665000Y-102870000D03*
X243205000Y-102870000D03*
X245745000Y-102870000D03*
X248285000Y-102870000D03*
X250825000Y-102870000D03*
X253365000Y-102870000D03*
X255905000Y-102870000D03*
X258445000Y-102870000D03*
X258445000Y-87630000D03*
X255905000Y-87630000D03*
X253365000Y-87630000D03*
X250825000Y-87630000D03*
X248285000Y-87630000D03*
X245745000Y-87630000D03*
X243205000Y-87630000D03*
X240665000Y-87630000D03*
X238125000Y-87630000D03*
X235585000Y-87630000D03*
X233045000Y-87630000D03*
X230505000Y-87630000D03*
X227965000Y-87630000D03*
X225425000Y-87630000D03*
X222885000Y-87630000D03*
%TD*%
D14*
%TO.C,D2*%
X180340000Y-68580000D03*
D15*
X180340000Y-58420000D03*
%TD*%
D16*
%TO.C,J12*%
X227965000Y-113665000D03*
D17*
X225425000Y-113665000D03*
X222885000Y-113665000D03*
X220345000Y-113665000D03*
%TD*%
D10*
%TO.C,R13*%
X231140000Y-73050000D03*
D11*
X238760000Y-73050000D03*
%TD*%
D10*
%TO.C,R2*%
X154940000Y-76149200D03*
D11*
X162560000Y-76149200D03*
%TD*%
D14*
%TO.C,D9*%
X269240000Y-55880000D03*
D15*
X269240000Y-45720000D03*
%TD*%
D18*
%TO.C,U2*%
X200025000Y-111760000D03*
D19*
X200025000Y-109220000D03*
X200025000Y-106680000D03*
X200025000Y-104140000D03*
X200025000Y-101600000D03*
X200025000Y-99060000D03*
X200025000Y-96520000D03*
X200025000Y-93980000D03*
X192405000Y-93980000D03*
X192405000Y-96520000D03*
X192405000Y-99060000D03*
X192405000Y-101600000D03*
X192405000Y-104140000D03*
X192405000Y-106680000D03*
X192405000Y-109220000D03*
X192405000Y-111760000D03*
%TD*%
D10*
%TO.C,R8*%
X193040000Y-76200000D03*
D11*
X200660000Y-76200000D03*
%TD*%
D20*
%TO.C,REF\u002A\u002A*%
X144000000Y-114000000D03*
%TD*%
D16*
%TO.C,J14*%
X258445000Y-113665000D03*
D17*
X255905000Y-113665000D03*
%TD*%
D21*
%TO.C,Q2*%
X167640000Y-63500000D03*
D22*
X170180000Y-63500000D03*
X172720000Y-63500000D03*
%TD*%
D20*
%TO.C,REF\u002A\u002A*%
X269000000Y-114000000D03*
%TD*%
D10*
%TO.C,R14*%
X231140000Y-76200000D03*
D11*
X238760000Y-76200000D03*
%TD*%
D14*
%TO.C,D4*%
X205740000Y-68580000D03*
D15*
X205740000Y-58420000D03*
%TD*%
D10*
%TO.C,R17*%
X256540000Y-73050000D03*
D11*
X264160000Y-73050000D03*
%TD*%
D10*
%TO.C,R11*%
X218440000Y-73050000D03*
D11*
X226060000Y-73050000D03*
%TD*%
D10*
%TO.C,R5*%
X180340000Y-73050000D03*
D11*
X187960000Y-73050000D03*
%TD*%
D12*
%TO.C,C4*%
X144780000Y-78002651D03*
D23*
X144780000Y-74202651D03*
%TD*%
D21*
%TO.C,Q7*%
X231140000Y-50800000D03*
D22*
X233680000Y-50800000D03*
X236220000Y-50800000D03*
%TD*%
D10*
%TO.C,R9*%
X205740000Y-73050000D03*
D11*
X213360000Y-73050000D03*
%TD*%
D14*
%TO.C,D5*%
X218440000Y-55880000D03*
D15*
X218440000Y-45720000D03*
%TD*%
D21*
%TO.C,Q4*%
X193040000Y-63500000D03*
D22*
X195580000Y-63500000D03*
X198120000Y-63500000D03*
%TD*%
D10*
%TO.C,R18*%
X256540000Y-76200000D03*
D11*
X264160000Y-76200000D03*
%TD*%
D10*
%TO.C,R10*%
X205740000Y-76200000D03*
D11*
X213360000Y-76200000D03*
%TD*%
D10*
%TO.C,R4*%
X167640000Y-76149200D03*
D11*
X175260000Y-76149200D03*
%TD*%
D24*
%TO.C,J11*%
X261620000Y-38100000D03*
D25*
X256620000Y-38100000D03*
%TD*%
D10*
%TO.C,R15*%
X243840000Y-73050000D03*
D11*
X251460000Y-73050000D03*
%TD*%
D26*
%TO.C,J13*%
X153035000Y-95885000D03*
D27*
X155575000Y-95885000D03*
X153035000Y-98425000D03*
X155575000Y-98425000D03*
X153035000Y-100965000D03*
X155575000Y-100965000D03*
X153035000Y-103505000D03*
X155575000Y-103505000D03*
X153035000Y-106045000D03*
X155575000Y-106045000D03*
X153035000Y-108585000D03*
X155575000Y-108585000D03*
%TD*%
D10*
%TO.C,R3*%
X167640000Y-72999200D03*
D11*
X175260000Y-72999200D03*
%TD*%
D18*
%TO.C,U1*%
X175895000Y-111760000D03*
D19*
X175895000Y-109220000D03*
X175895000Y-106680000D03*
X175895000Y-104140000D03*
X175895000Y-101600000D03*
X175895000Y-99060000D03*
X175895000Y-96520000D03*
X175895000Y-93980000D03*
X168275000Y-93980000D03*
X168275000Y-96520000D03*
X168275000Y-99060000D03*
X168275000Y-101600000D03*
X168275000Y-104140000D03*
X168275000Y-106680000D03*
X168275000Y-109220000D03*
X168275000Y-111760000D03*
%TD*%
D23*
%TO.C,C2*%
X181610000Y-93980000D03*
X189110000Y-93980000D03*
%TD*%
D24*
%TO.C,J10*%
X248920000Y-38100000D03*
D25*
X243920000Y-38100000D03*
%TD*%
D24*
%TO.C,J6*%
X198120000Y-38100000D03*
D25*
X193120000Y-38100000D03*
%TD*%
D10*
%TO.C,R1*%
X154940000Y-72999200D03*
D11*
X162560000Y-72999200D03*
%TD*%
D16*
%TO.C,J15*%
X245745000Y-113665000D03*
D17*
X243205000Y-113665000D03*
X240665000Y-113665000D03*
%TD*%
D24*
%TO.C,J9*%
X236220000Y-38100000D03*
D25*
X231220000Y-38100000D03*
%TD*%
D21*
%TO.C,Q6*%
X218440000Y-63500000D03*
D22*
X220980000Y-63500000D03*
X223520000Y-63500000D03*
%TD*%
D24*
%TO.C,J5*%
X185420000Y-38100000D03*
D25*
X180420000Y-38100000D03*
%TD*%
D14*
%TO.C,D1*%
X167640000Y-55880000D03*
D15*
X167640000Y-45720000D03*
%TD*%
D21*
%TO.C,Q9*%
X256540000Y-50800000D03*
D22*
X259080000Y-50800000D03*
X261620000Y-50800000D03*
%TD*%
D10*
%TO.C,R6*%
X180340000Y-76200000D03*
D11*
X187960000Y-76200000D03*
%TD*%
D21*
%TO.C,Q1*%
X154940000Y-50800000D03*
D22*
X157480000Y-50800000D03*
X160020000Y-50800000D03*
%TD*%
D23*
%TO.C,C1*%
X163830000Y-111760000D03*
X163830000Y-104260000D03*
%TD*%
D28*
%TO.C,C3*%
X156210000Y-60970000D03*
D29*
X156210000Y-65970000D03*
%TD*%
D10*
%TO.C,R7*%
X193040000Y-73050000D03*
D11*
X200660000Y-73050000D03*
%TD*%
D14*
%TO.C,D6*%
X231140000Y-68580000D03*
D15*
X231140000Y-58420000D03*
%TD*%
D24*
%TO.C,J1*%
X144780000Y-62230000D03*
D25*
X144780000Y-67230000D03*
%TD*%
D21*
%TO.C,Q8*%
X243840000Y-63500000D03*
D22*
X246380000Y-63500000D03*
X248920000Y-63500000D03*
%TD*%
D10*
%TO.C,R12*%
X218440000Y-76200000D03*
D11*
X226060000Y-76200000D03*
%TD*%
D21*
%TO.C,Q3*%
X180340000Y-50800000D03*
D22*
X182880000Y-50800000D03*
X185420000Y-50800000D03*
%TD*%
D24*
%TO.C,J4*%
X172720000Y-38100000D03*
D25*
X167720000Y-38100000D03*
%TD*%
D14*
%TO.C,D3*%
X193040000Y-55880000D03*
D15*
X193040000Y-45720000D03*
%TD*%
D30*
%TO.C,J16*%
X183515000Y-111760000D03*
D31*
X183515000Y-109260000D03*
X183515000Y-106760000D03*
X183515000Y-104260000D03*
X183515000Y-101760000D03*
%TD*%
D14*
%TO.C,D7*%
X243840000Y-55880000D03*
D15*
X243840000Y-45720000D03*
%TD*%
D14*
%TO.C,D8*%
X256540000Y-68580000D03*
D15*
X256540000Y-58420000D03*
%TD*%
D21*
%TO.C,Q5*%
X205740000Y-50800000D03*
D22*
X208280000Y-50800000D03*
X210820000Y-50800000D03*
%TD*%
D20*
%TO.C,REF\u002A\u002A*%
X269000000Y-32000000D03*
%TD*%
D24*
%TO.C,J7*%
X210820000Y-38100000D03*
D25*
X205820000Y-38100000D03*
%TD*%
D20*
%TO.C,REF\u002A\u002A*%
X144000000Y-32000000D03*
%TD*%
D24*
%TO.C,J8*%
X223520000Y-38100000D03*
D25*
X218520000Y-38100000D03*
%TD*%
D24*
%TO.C,J3*%
X160020000Y-38100000D03*
D25*
X155020000Y-38100000D03*
%TD*%
D32*
%TO.C,J2*%
X144780000Y-86360000D03*
D33*
X144780000Y-83820000D03*
%TD*%
M02*
